# xmcd CD database file
#
# Track frame offsets:
#	150
#	14937
#	26412
#	41937
#	55587
#	66687
#	79362
#	95187
#	110112
#	123237
#	134262
#	147387
#	160587
#	172812
#	183012
#	192762
#	206037
#	216387
#
# Disc length: 3042 seconds
#
# Revision: 5
# Processed by: cddbd v1.5.2PL0 Copyright (c) Steve Scherf et al.
# Submitted via: jetAudio 7
#
DISCID=130be012
DTITLE=The Statler Brothers - The Very Best Of The Statlers
DYEAR=1984
DGENRE=Traditional Country
TTITLE0=Don't Wait On Me
TTITLE1=I'll Even Love You Better Than I Did
TTITLE2=Elizabeth
TTITLE3=Guilty
TTITLE4=Oh Baby Mine
TTITLE5=Atlanta Blue
TTITLE6=One Takes The Blame
TTITLE7=My Only Love
TTITLE8=Hollywood
TTITLE9=Flowers On The Wall
TTITLE10=Do You Remember These
TTITLE11=I'll Go To My Grave Loving You
TTITLE12=Class Of '57
TTITLE13=Do You Know You Are My Sunshine
TTITLE14=Who Am I to Say
TTITLE15=Charlotte's Web
TTITLE16=The Official Historian On Shirley Jean Berrell
TTITLE17=You'll Be Back
EXTD=
EXTT0=
EXTT1=
EXTT2=
EXTT3=
EXTT4=
EXTT5=
EXTT6=
EXTT7=
EXTT8=
EXTT9=
EXTT10=
EXTT11=
EXTT12=
EXTT13=
EXTT14=
EXTT15=
EXTT16=
EXTT17=
PLAYORDER=
